<?xml version="1.0" encoding="UTF-8"?>
<svg width="469px" height="164px" viewBox="0 0 469 164" version="1.1" xmlns="http://www.w3.org/2000/svg" xmlns:xlink="http://www.w3.org/1999/xlink">
    <!-- Generator: Sketch 51.1 (57501) - http://www.bohemiancoding.com/sketch -->
    <title>Group</title>
    <desc>Created with Sketch.</desc>
    <defs></defs>
    <g id="Page-1" stroke="none" stroke-width="1" fill="none" fill-rule="evenodd">
        <g id="Group" fill="#FFFFFF" fill-rule="nonzero">
            <path d="M82.49,19.85 C57.5378145,19.8459552 35.040333,34.8736765 25.4887423,57.9253291 C15.9371515,80.9769818 21.2126174,107.512591 38.855047,125.157881 C56.4974766,142.80317 83.0322298,148.082938 106.085431,138.535084 C129.138631,128.987231 144.17,106.492186 144.17,81.54 C144.17,47.4734586 116.556541,19.8555222 82.49,19.85 Z M82.49,139.67 C50.3856875,139.67 24.36,113.644313 24.36,81.54 C24.36,49.4356875 50.3856875,23.41 82.49,23.41 C114.594313,23.41 140.62,49.4356875 140.62,81.54 C140.581429,113.628322 114.578322,139.631429 82.49,139.67 Z" id="Shape"></path>
            <path d="M468.75,67 C468.781164,63.9468285 467.772559,60.9739131 465.89,58.57 C462.42,54.17 456.53,53.71 456.53,53.71 L404.87,53.71 C404.112407,53.7627755 403.365709,53.5066618 402.8,53 C402.276679,52.4629866 401.973433,51.7494659 401.95,51 L401.95,45.1 C401.915368,44.3206279 402.22206,43.5648502 402.79,43.03 C403.337403,42.5415138 404.057842,42.2929623 404.79,42.34 L468.71,42.34 L468.71,37.16 C468.68997,34.331771 467.764794,31.5842779 466.07,29.32 C463.799503,26.2634168 460.291237,24.3701247 456.49,24.15 L397.87,24.15 C393.881726,23.8381642 389.971977,25.3799331 387.27,28.33 C385.059165,30.7364442 383.844013,33.8922651 383.87,37.16 L383.87,58.32 C383.927544,61.8638761 385.312039,65.257314 387.75,67.83 C390.127298,70.2157631 393.323909,71.6066823 396.69,71.72 L447.9,71.72 C448.72709,71.741222 449.508697,72.1030773 450.06,72.72 C450.508455,73.1989729 450.752409,73.833972 450.74,74.49 L450.74,80.65 C450.756527,81.3186693 450.512721,81.967623 450.06,82.46 C449.546075,83.0193789 448.819602,83.3353949 448.06,83.33 L379.06,83.33 L347,24.15 L324.6,24.15 L313.31,44.7 L302.08,24.15 L279.71,24.15 L246.41,85 L222.86,57.57 L255.39,24.43 L231.14,24.43 L199.14,56.55 L199.14,24.15 L179,24.15 L179,101.4 L199.22,101.4 L199.22,57.4 L237.44,101.4 L259.9,101.4 L290.8,44.75 L302.08,65.32 L282.35,101.4 L304.79,101.4 L335.79,44.7 L366.71,101.4 L456.58,101.4 C456.58,101.4 462.65,101.08 466.15,96.31 C467.946249,93.5446253 468.853513,90.2959203 468.75,87 L468.75,67 Z" id="Shape"></path>
            <polygon id="Shape" points="272.99 96.9 273.03 96.9 272.99 96.85"></polygon>
            <polygon id="Shape" points="178.69 112.52 201.6 112.52 201.6 116.01 192.03 116.01 192.03 139.99 188.09 139.99 188.09 116.01 178.69 116.01"></polygon>
            <polygon id="Shape" points="207.24 112.56 222.79 112.56 222.79 116.05 211.16 116.05 211.16 124.43 222.4 124.43 222.4 127.94 211.16 127.94 211.16 136.45 223.16 136.45 223.16 139.95 207.24 139.95"></polygon>
            <path d="M252.92,133.63 L252.92,137.95 C249.842456,139.576549 246.400044,140.388958 242.92,140.31 C240.202177,140.393677 237.510752,139.755326 235.12,138.46 C233.005264,137.250579 231.256899,135.491848 230.06,133.37 C228.824319,131.244872 228.178734,128.828241 228.19,126.37 C228.113359,122.555321 229.666512,118.888861 232.46,116.29 C235.28579,113.573238 239.081331,112.100395 243,112.2 C246.319354,112.300588 249.584377,113.069229 252.6,114.46 L252.6,118.68 C249.759847,116.961142 246.5189,116.01644 243.2,115.94 C240.296867,115.853025 237.480063,116.93364 235.38,118.94 C233.397266,120.905031 232.277731,123.578124 232.268351,126.369628 C232.258971,129.161132 233.360516,131.841689 235.33,133.82 C237.454679,135.789193 240.275295,136.832533 243.17,136.72 C246.652498,136.667189 250.042797,135.592725 252.92,133.63 Z" id="Shape"></path>
            <polygon id="Shape" points="279.02 112.56 282.95 112.56 282.95 139.99 279.02 139.99 279.02 128.04 263.61 128.04 263.61 139.99 259.68 139.99 259.68 112.56 263.61 112.56 263.61 124.43 279.02 124.43"></polygon>
            <polygon id="Shape" points="312.73 112.56 316.45 112.56 316.45 139.99 313.08 139.99 294.75 118.87 294.75 139.99 291.05 139.99 291.05 112.56 294.23 112.56 312.73 133.86"></polygon>
            <path d="M337.71,112.17 C341.631328,112.042866 345.441921,113.482183 348.3,116.17 C351.087802,118.77383 352.627513,122.446568 352.53,126.26 C352.620059,130.056098 351.058542,133.704503 348.25,136.26 C345.325185,138.95037 341.461981,140.386506 337.49,140.26 C333.649498,140.366394 329.927325,138.925087 327.16,136.26 C324.423135,133.666181 322.921039,130.029145 323.03,126.26 C322.913211,122.43373 324.425125,118.737536 327.19,116.09 C330.029256,113.425705 333.819589,112.013338 337.71,112.17 Z M337.86,115.9 C334.992304,115.797545 332.2048,116.857734 330.13,118.84 C328.114602,120.811664 327.025173,123.542501 327.13,126.36 C327.043702,129.133136 328.133323,131.813602 330.13,133.74 C334.462265,137.681082 341.08886,137.655027 345.39,133.68 C347.424321,131.731728 348.542628,129.015839 348.47,126.2 C348.523857,123.431478 347.405165,120.769138 345.39,118.87 C343.387777,116.904311 340.675055,115.83293 337.87,115.9 L337.86,115.9 Z" id="Shape"></path>
            <polygon id="Shape" points="359.31 112.56 363.22 112.56 363.22 136.42 375.57 136.42 375.57 139.99 359.31 139.99"></polygon>
            <path d="M394.4,112.17 C398.321144,112.043975 402.131326,113.483137 404.99,116.17 C407.77196,118.77711 409.307506,122.448594 409.21,126.26 C409.297233,130.051442 407.744564,133.696204 404.95,136.26 C402.020413,138.949119 398.154702,140.384852 394.18,140.26 C390.342345,140.367085 386.623016,138.925484 383.86,136.26 C381.119451,133.667949 379.613621,130.030679 379.72,126.26 C379.612123,122.433357 381.126755,118.739398 383.89,116.09 C386.726185,113.427253 390.512826,112.014918 394.4,112.17 Z M394.56,115.9 C391.689635,115.79939 388.899723,116.859124 386.82,118.84 C384.804602,120.811664 383.715173,123.542501 383.82,126.36 C383.736213,129.132685 384.825436,131.812173 386.82,133.74 C391.157043,137.688556 397.794099,137.662494 402.1,133.68 C404.130642,131.729983 405.245224,129.014323 405.17,126.2 C405.227698,123.432764 404.112532,120.770168 402.1,118.87 C400.091631,116.901228 397.371526,115.82978 394.56,115.9 Z" id="Shape"></path>
            <path d="M430.8,126.48 L440,126.48 L440,138.1 C436.852341,139.509934 433.448763,140.258721 430,140.3 C425.453333,140.3 421.823333,138.966667 419.11,136.3 C416.436499,133.746242 414.95955,130.186325 415.04,126.49 C414.93263,122.634993 416.462166,118.914694 419.25,116.25 C422.085396,113.523972 425.898444,112.053534 429.83,112.17 C431.311852,112.162199 432.789221,112.33344 434.23,112.68 C436.037141,113.14439 437.80308,113.756449 439.51,114.51 L439.51,118.51 C436.571207,116.710006 433.205591,115.726211 429.76,115.66 C426.922257,115.600967 424.18502,116.711049 422.19,118.73 C418.074166,122.945268 418.074166,129.674732 422.19,133.89 C424.322007,135.916256 427.180687,136.997724 430.12,136.89 C432.04459,136.824293 433.947285,136.459947 435.76,135.81 L436.14,135.69 L436.14,130 L430.8,130 L430.8,126.48 Z" id="Shape"></path>
            <polygon id="Shape" points="464.18 112.56 468.94 112.56 458.81 125.48 458.81 139.99 454.79 139.99 454.79 125.48 444.65 112.56 449.39 112.56 456.73 122.02"></polygon>
            <path d="M24.86,111.23 L24.86,140 L53,140 C40.8283894,133.607215 30.981769,123.540148 24.86,111.23 Z" id="Shape"></path>
            <path d="M52.18,24.18 L24.79,24.18 L24.79,52.61 C30.769758,40.5355461 40.3366701,30.6053777 52.18,24.18 Z" id="Shape"></path>
            <path d="M140.67,51.7 L140.67,24.26 L113.79,24.26 C125.299549,30.5033953 134.665217,40.0641807 140.67,51.7 Z" id="Shape"></path>
            <path d="M113.11,140 L140.74,140 L140.74,112.21 C134.59022,124.082077 124.94637,133.781772 113.11,140 Z" id="Shape"></path>
            <path d="M21.06,61.93 L0.89,82.1 L20.78,102 C16.6690421,88.947863 16.7669964,74.9333973 21.06,61.94 L21.06,61.93 Z" id="Shape"></path>
            <path d="M62.94,144.16 L82.77,164 L102.77,144 C89.8286165,148.235489 75.8852819,148.30893 62.9,144.21 L62.94,144.16 Z" id="Shape"></path>
            <path d="M101.88,19.07 L82.81,0 L63.09,19.72 C75.6550522,15.5755723 89.1831457,15.3488834 101.88,19.07 Z" id="Shape"></path>
            <path d="M145,101.59 L164.59,82 L145.59,63 C149.294752,75.6277741 149.08906,89.081385 145,101.59 Z" id="Shape"></path>
            <path d="M82.5,26.81 C52.2734564,26.8044777 27.7655245,51.3034558 27.7600018,81.5299994 C27.7544791,111.756543 52.253457,136.264475 82.4800006,136.269998 C112.706544,136.275521 137.214477,111.776544 137.22,81.55 C137.192453,51.3371571 112.712831,26.8485875 82.5,26.81 Z M124.12,102.75 L101.39,95.27 L115.53,114.57 L96.23,100.44 L103.7,123.17 L89.7,103.75 L89.8,127.68 L82.49,104.9 L75.18,127.68 L75.27,103.75 L61.27,123.17 L68.75,100.44 L49.45,114.57 L63.59,95.27 L40.86,102.75 L60.27,88.75 L36.34,88.83 L59.12,81.52 L36.35,74.23 L60.28,74.33 L40.87,60.33 L63.6,67.82 L49.45,48.51 L68.77,62.64 L61.28,39.9 L75.28,59.32 L75.19,35.4 L82.5,58.18 L89.82,35.4 L89.72,59.32 L103.72,39.9 L96.23,62.64 L115.53,48.51 L101.39,67.81 L124.12,60.32 L104.71,74.32 L128.64,74.22 L105.86,81.53 L128.64,88.84 L104.71,88.76 L124.12,102.75 Z" id="Shape"></path>
        </g>
    </g>
</svg>